<svg width="90" height="45" viewBox="0 0 90 45" fill="none" xmlns="http://www.w3.org/2000/svg">
<path d="M6.059 2.12C4.82167 2.12 3.84033 2.26933 3.115 2.568C2.38967 2.86666 1.85633 3.144 1.515 3.4H0.875L1.579 0.199997H22.059L22.763 3.4H22.123C21.7817 3.144 21.2483 2.86666 20.523 2.568C19.7977 2.26933 18.8163 2.12 17.579 2.12H15.019V39.816C15.019 41.0533 15.1683 42.0347 15.467 42.76C15.7657 43.4853 16.043 44.0187 16.299 44.36V45H7.339V44.36C7.595 44.0187 7.87233 43.4853 8.171 42.76C8.46967 42.0347 8.619 41.0533 8.619 39.816V2.12H6.059ZM32.9925 39.816C32.9925 41.0533 33.1418 42.0347 33.4405 42.76C33.7392 43.4853 34.0165 44.0187 34.2725 44.36V45H25.3125V44.36C25.5685 44.0187 25.8458 43.4853 26.1445 42.76C26.4432 42.0347 26.5925 41.0533 26.5925 39.816V5.384C26.5925 4.14667 26.4432 3.16533 26.1445 2.44C25.8458 1.71466 25.5685 1.18133 25.3125 0.839996V0.199997H32.9925C35.2538 0.199997 37.1952 0.498664 38.8165 1.096C40.4378 1.65066 41.7818 2.46133 42.8485 3.528C43.9152 4.552 44.6832 5.78933 45.1525 7.24C45.6645 8.69066 45.9205 10.312 45.9205 12.104C45.9205 15.1333 45.1738 17.6507 43.6805 19.656C42.2298 21.6613 39.9045 22.9627 36.7045 23.56C37.3872 24.5413 38.1765 25.224 39.0725 25.608C40.0112 25.992 41.0565 26.1627 42.2085 26.12L45.5365 38.152C45.8352 39.2613 46.1125 40.1787 46.3685 40.904C46.6245 41.6293 46.8805 42.2267 47.1365 42.696C47.4352 43.1227 47.7338 43.464 48.0325 43.72C48.3312 43.976 48.6938 44.1893 49.1205 44.36V45H38.6245V44.36C39.0938 44.1467 39.4138 43.6773 39.5845 42.952C39.7552 42.2267 39.6485 41.1387 39.2645 39.688L34.7205 23.816C34.4218 23.8587 34.1232 23.88 33.8245 23.88C33.5685 23.88 33.2912 23.88 32.9925 23.88V39.816ZM32.9925 21.96C34.3578 21.96 35.4245 21.768 36.1925 21.384C37.0032 20.9573 37.6005 20.3387 37.9845 19.528C38.3685 18.7173 38.6032 17.6933 38.6885 16.456C38.7738 15.2187 38.8165 13.768 38.8165 12.104C38.8165 10.44 38.7738 8.98933 38.6885 7.752C38.6032 6.472 38.3685 5.42666 37.9845 4.616C37.6005 3.76266 37.0032 3.144 36.1925 2.76C35.4245 2.33333 34.3578 2.12 32.9925 2.12V21.96ZM63.6065 43.08C64.8438 43.08 65.8252 42.9307 66.5505 42.632C67.2758 42.3333 67.8092 42.056 68.1505 41.8H68.7905L68.0865 45H51.4465V44.36C51.7025 44.0187 51.9798 43.4853 52.2785 42.76C52.5772 42.0347 52.7265 41.0533 52.7265 39.816V5.384C52.7265 4.14667 52.5985 3.144 52.3425 2.376C52.0865 1.56533 51.7878 1.05333 51.4465 0.839996V0.199997H66.1665L66.8705 3.4H66.2305C65.8892 3.144 65.3558 2.86666 64.6305 2.568C63.9052 2.26933 62.9238 2.12 61.6865 2.12H59.1265V13H59.2545C60.4918 13 61.4732 12.8507 62.1985 12.552C62.9238 12.2533 63.4572 11.976 63.7985 11.72H64.4385V15.88H63.8625C63.5212 15.624 62.9878 15.3467 62.2625 15.048C61.5372 14.7493 60.5558 14.6 59.3185 14.6H59.1265V43.08H63.6065ZM83.919 43.08C85.1563 43.08 86.1377 42.9307 86.863 42.632C87.5883 42.3333 88.1217 42.056 88.463 41.8H89.103L88.399 45H71.759V44.36C72.015 44.0187 72.2923 43.4853 72.591 42.76C72.8897 42.0347 73.039 41.0533 73.039 39.816V5.384C73.039 4.14667 72.911 3.144 72.655 2.376C72.399 1.56533 72.1003 1.05333 71.759 0.839996V0.199997H86.479L87.183 3.4H86.543C86.2017 3.144 85.6683 2.86666 84.943 2.568C84.2177 2.26933 83.2363 2.12 81.999 2.12H79.439V13H79.567C80.8043 13 81.7857 12.8507 82.511 12.552C83.2363 12.2533 83.7697 11.976 84.111 11.72H84.751V15.88H84.175C83.8337 15.624 83.3003 15.3467 82.575 15.048C81.8497 14.7493 80.8683 14.6 79.631 14.6H79.439V43.08H83.919Z" fill="#212121"/>
</svg>
